<svg width="100" height="32" xmlns="http://www.w3.org/2000/svg">
 <defs>
  <filter color-interpolation-filters="sRGB" filterUnits="userSpaceOnUse" height="60" width="128" y="0" x="0" id="filter0_d_41057_39260">
   <feGaussianBlur stdDeviation="7"/>
  </filter>
 </defs>
 <g>
  <title>background</title>
  <rect fill="none" id="canvas_background" height="34" width="102" y="-1" x="-1"/>
 </g>
 <g>
  <title>Layer 1</title>
  <g id="svg_1" filter="url(#filter0_d_41057_39260)">
   <rect id="svg_2" fill="#202020" rx="16" height="32" width="100" y="-0.014493" x="-0.202899"/>
  </g>
  <path id="svg_3" fill="white" d="m12.634501,20.485507l-1.5142,0l3.4023,-9.4545l1.6481,0l3.4023,9.4545l-1.5142,0l-2.6729,-7.7372l-0.0739,0l-2.6775,7.7372zm0.2539,-3.7024l4.9119,0l0,1.2003l-4.9119,0l0,-1.2003zm7.9392,3.7024l0,-7.0909l1.3803,0l0,2.973l0.6648,0l2.3405,-2.973l1.7081,0l-2.7468,3.4485l2.7791,3.6424l-1.7127,0l-2.1374,-2.8345l-0.8956,0l0,2.8345l-1.3803,0zm7.1982,0l0,-7.0909l1.3803,0l0,2.973l0.6648,0l2.3405,-2.973l1.7081,0l-2.7468,3.4485l2.7792,3.6424l-1.7128,0l-2.1374,-2.8345l-0.8956,0l0,2.8345l-1.3803,0zm9.2618,0.157c-0.4493,0 -0.8556,-0.0831 -1.2187,-0.2493c-0.3632,-0.1693 -0.651,-0.414 -0.8633,-0.734c-0.2093,-0.3201 -0.314,-0.7125 -0.314,-1.1773c0,-0.4 0.077,-0.7294 0.2309,-0.9879c0.1539,-0.2585 0.3616,-0.4632 0.6232,-0.614c0.2616,-0.1508 0.554,-0.2646 0.8771,-0.3416c0.3232,-0.0769 0.6525,-0.1354 0.988,-0.1754c0.4247,-0.0493 0.7694,-0.0893 1.034,-0.12c0.2647,-0.0339 0.4571,-0.0878 0.5771,-0.1616c0.12,-0.0739 0.18,-0.1939 0.18,-0.3601l0,-0.0323c0,-0.4032 -0.1138,-0.7156 -0.3416,-0.9372c-0.2246,-0.2216 -0.5601,-0.3324 -1.0064,-0.3324c-0.4647,0 -0.8309,0.1031 -1.0987,0.3094c-0.2647,0.2031 -0.4478,0.4293 -0.5493,0.6786l-1.2973,-0.2955c0.1539,-0.4309 0.3786,-0.7786 0.674,-1.0433c0.2986,-0.2678 0.6417,-0.4617 1.0295,-0.5817c0.3878,-0.1231 0.7956,-0.1846 1.2234,-0.1846c0.2831,0 0.5832,0.0338 0.9002,0.1015c0.3201,0.0647 0.6186,0.1847 0.8956,0.3601c0.28,0.1754 0.5093,0.4263 0.6878,0.7525c0.1785,0.3231 0.2678,0.7432 0.2678,1.2603l0,4.7088l-1.348,0l0,-0.9695l-0.0554,0c-0.0893,0.1785 -0.2231,0.354 -0.4017,0.5263c-0.1785,0.1724 -0.4077,0.3155 -0.6878,0.4294c-0.2801,0.1138 -0.6155,0.1708 -1.0064,0.1708zm0.3001,-1.108c0.3816,0 0.7078,-0.0754 0.9787,-0.2262c0.2739,-0.1508 0.4816,-0.3478 0.6232,-0.5909c0.1446,-0.2462 0.217,-0.5094 0.217,-0.7894l0,-0.9141c-0.0493,0.0493 -0.1447,0.0954 -0.2863,0.1385c-0.1385,0.04 -0.297,0.0754 -0.4755,0.1062c-0.1785,0.0277 -0.3523,0.0538 -0.5216,0.0785c-0.1693,0.0215 -0.3109,0.04 -0.4247,0.0554c-0.2678,0.0338 -0.5125,0.0908 -0.7341,0.1708c-0.2185,0.08 -0.3939,0.1954 -0.5262,0.3462c-0.1293,0.1477 -0.1939,0.3447 -0.1939,0.5909c0,0.3416 0.1262,0.6002 0.3785,0.7756c0.2524,0.1723 0.574,0.2585 0.9649,0.2585zm5.6563,3.6101c-0.2062,0 -0.3939,-0.0169 -0.5632,-0.0508c-0.1693,-0.0308 -0.2955,-0.0646 -0.3786,-0.1016l0.3324,-1.131c0.2524,0.0677 0.4771,0.097 0.674,0.0877c0.197,-0.0092 0.3709,-0.0831 0.5217,-0.2216c0.1539,-0.1385 0.2893,-0.3647 0.4063,-0.6786l0.1708,-0.4709l-2.5945,-7.1832l1.4773,0l1.7958,5.5028l0.0738,0l1.7959,-5.5028l1.4818,0l-2.9222,8.0373c-0.1354,0.3693 -0.3077,0.6817 -0.517,0.9371c-0.2093,0.2585 -0.4586,0.4524 -0.7479,0.5817c-0.2893,0.1293 -0.6248,0.1939 -1.0064,0.1939zm11.2965,-6.8001l0,1.1957l-3.8409,0l0,-1.1957l3.8409,0zm-3.4531,-2.9499l0,7.0909l-1.3526,0l0,-7.0909l1.3526,0zm4.418,0l0,7.0909l-1.348,0l0,-7.0909l1.348,0zm0.9671,1.191l0,-1.191l5.983,0l0,1.191l-2.3129,0l0,5.8999l-1.348,0l0,-5.8999l-2.3221,0z"/>
  <rect id="svg_4" fill="#313131" rx="13" height="26" width="26" y="2.985507" x="70.797101"/>
  <path id="svg_5" fill="white" d="m85.227201,17.953307c1.3619,-0.5621 2.3199,-1.903 2.3199,-3.4678c0,-2.0711 -1.679,-3.75 -3.7497,-3.75c-2.071,0 -3.75,1.6789 -3.75,3.75c0,1.5647 0.9584,2.9056 2.3202,3.4677c-1.3947,0.2322 -2.6776,0.7982 -3.7619,1.6129l1.3815,1.8388c1.0613,-0.7973 2.3789,-1.2694 3.81,-1.2694c1.4311,0 2.7489,0.4721 3.8099,1.2694l1.382,-1.8388c-1.085,-0.8146 -2.367,-1.3806 -3.7619,-1.6128z" clip-rule="evenodd" fill-rule="evenodd"/>
 </g>
</svg>